# xmcd
#
# Track frame offsets: 
#        150
#        13557
#        31965
#        48735
#        65107
#        81195
#        97132
#        114740
#        129342
#        140717
#
# Disc length: 2034 seconds
#
# Revision: 4
# Processed by: cddbd v1.4PL0 Copyright (c) Steve Scherf et al.
# Submitted via: ExactAudioCopy v0.90b4
#
DISCID=9107f00a
DTITLE=George Strait - The Road Less Traveled
DYEAR=2001
DGENRE=Country
TTITLE0=She'll Leave You With A Smile
TTITLE1=Run
TTITLE2=Stars On The Water
TTITLE3=Living And Living Well
TTITLE4=The Real Thing
TTITLE5=Don't Tell Me You're Not In Love
TTITLE6=The Road Less Traveled
TTITLE7=The Middle Of Nowhere
TTITLE8=Good Time Charley's
TTITLE9=My Life's Been Grand
EXTD=YEAR: 2001 ID3G:   2
EXTT0=
EXTT1=
EXTT2=
EXTT3=
EXTT4=
EXTT5=
EXTT6=
EXTT7=
EXTT8=
EXTT9=
PLAYORDER=
